# xmcd
#
# Track frame offsets:
#	150
#	14704
#	28209
#	43299
#	56139
#	69317
#	84010
#	96922
#	111992
#	121015
#	134164
#	150037
#	159704
#
# Disc length: 2326 seconds
#
# Revision: 1
# Processed by: cddbd v1.4b42PL1 Copyright (c) Steve Scherf et al.
# Submitted via: audiograbber 1.80
#
DISCID=ad09140d
DTITLE=T99 - Coo Coo
DYEAR=1900
DGENRE=
TTITLE0=Your Fool Too Long
TTITLE1=Let That Eagle Fly
TTITLE2=So Many Times
TTITLE3=One Man Down
TTITLE4=I Wanna Love You
TTITLE5=Evil Eye
TTITLE6=Double Eyed Whammy
TTITLE7=What Have I Done
TTITLE8=Do The Do
TTITLE9=Round and Round
TTITLE10=Flyin' High
TTITLE11=Three Times Seven
TTITLE12=Big 'Ole Town
EXTD=
EXTT0=
EXTT1=
EXTT2=
EXTT3=
EXTT4=
EXTT5=
EXTT6=
EXTT7=
EXTT8=
EXTT9=
EXTT10=
EXTT11=
EXTT12=
PLAYORDER=
